<?xml version="1.0" encoding="utf-8"?>
<svg version="1.1" id="Layer_1" xmlns="http://www.w3.org/2000/svg" xmlns:xlink="http://www.w3.org/1999/xlink" x="0px" y="0px"
	 viewBox="0 0 59 78.7">
<path d="M57.5,21.7H46v-5C46,7.5,38.6,0,29.5,0S13,7.5,13,16.7v5H1.5c-0.8,0-1.5,0.7-1.5,1.5v50c0,3,2.5,5.5,5.5,5.5h48
	c3,0,5.5-2.5,5.5-5.5v-50C59,22.3,58.3,21.7,57.5,21.7z M16,16.6C16,9,22.1,2.9,29.5,2.9S43,9,43,16.6v5H16V16.6z M53.5,75.7h-48
	c-1.4,0-2.5-1.1-2.5-2.5V24.7h10v14.8c0,0.8,0.7,1.5,1.5,1.5s1.5-0.7,1.5-1.5V24.7h27v14.8c0,0.8,0.7,1.5,1.5,1.5s1.5-0.7,1.5-1.5
	V24.7h10v48.5C56,74.6,54.9,75.7,53.5,75.7z"/>
</svg>
