<?xml version="1.0" encoding="utf-8"?>
<!-- Generator: Adobe Illustrator 24.0.0, SVG Export Plug-In . SVG Version: 6.00 Build 0)  -->
<svg version="1.1" id="Layer_1" xmlns="http://www.w3.org/2000/svg" xmlns:xlink="http://www.w3.org/1999/xlink" x="0px" y="0px"
	 viewBox="0 0 29.5 29.5" style="enable-background:new 0 0 29.5 29.5;" xml:space="preserve">
<path d="M28.8,28h-2.2V14.5h0.2c1.5,0,2.8-1.2,2.8-2.8l0-2c0-0.1,0-0.2-0.1-0.4l-3-8.9C26.4,0.2,26.1,0,25.8,0h-22
	C3.4,0,3.1,0.2,3,0.5l-3,9c0,0.1,0,0.1,0,0.2l0,0.1l0,1.9c0,1.5,1.2,2.8,2.8,2.8H3V28H0.8C0.3,28,0,28.3,0,28.8s0.3,0.8,0.8,0.8h28
	c0.4,0,0.8-0.3,0.8-0.8S29.2,28,28.8,28z M4.3,1.5h20.9L27.7,9H1.8L4.3,1.5z M2.8,13c-0.7,0-1.2-0.6-1.2-1.2v-1.2H28v1.2
	c0,0.7-0.6,1.2-1.2,1.2H2.8z M18,28h-6.5v-7.5H18V28z M25,28h-5.5v-8.2c0-0.4-0.3-0.8-0.8-0.8h-8c-0.4,0-0.8,0.3-0.8,0.8V28H4.5
	V14.5H25V28z"/>
</svg>
